# Blender v2.80 (sub 75) OBJ File: 'Crystal4Houdini2.blend'
# www.blender.org
g Shard04
v -0.036118 0.504455 -0.118448
v 0.071700 0.503317 -0.118410
v 0.114541 0.533350 -0.093068
v -0.188370 0.685087 0.033491
v -0.118733 0.756525 0.094015
v 0.154517 0.706642 0.050850
v 0.136582 0.582592 -0.052780
v -0.036118 0.160318 -0.118448
v 0.071700 0.159179 -0.118410
v 0.114541 0.189213 -0.093068
v -0.003789 0.793480 0.124524
v 0.100471 0.079033 -0.118380
v 0.071242 0.081518 -0.119172
v 0.137663 -0.517290 -0.055172
v -0.036118 -0.661727 -0.118448
v 0.114541 -0.535917 -0.093068
v -0.188460 -0.709144 0.036248
v -0.118733 -0.729267 0.094015
v -0.003789 -0.634308 0.124524
v 0.156286 -0.500845 0.049531
v 0.100471 -0.548223 -0.118380
v 0.071242 -0.572922 -0.119172
v -0.169742 -0.774675 0.050261
v -0.172326 -0.775198 0.017321
v 0.136968 0.189815 -0.053635
v 0.155284 0.182818 0.050278
v 0.143772 0.187265 -0.015449
v 0.071310 0.186248 0.089341
v -0.070336 0.170915 0.106861
v -0.118733 0.157425 0.094015
v -0.161255 0.134376 0.057058
v -0.003789 0.189427 0.124524
v -0.188405 0.146288 0.034557
vt 0.623239 0.347135
vt 0.623076 0.413092
vt 0.581613 0.312273
vt 0.653549 0.408180
vt 0.644067 0.347427
vt 0.653540 0.341754
vt 0.662241 0.332425
vt 0.648306 0.429076
vt 0.642919 0.428296
vt 0.643715 0.413694
vt 0.582393 0.573146
vt 0.581914 0.413087
vt 0.642945 0.549981
vt 0.648352 0.545412
vt 0.669464 0.406900
vt 0.662156 0.406425
vt 0.575372 0.415664
vt 0.564777 0.411390
vt 0.564231 0.298949
vt 0.555367 0.408903
vt 0.542428 0.405492
vt 0.541878 0.292121
vt 0.662003 0.539645
vt 0.653853 0.543072
vt 0.526866 0.406164
vt 0.509487 0.406892
vt 0.509186 0.308578
vt 0.565585 0.577807
vt 0.579238 0.585723
vt 0.585669 0.585867
vt 0.622797 0.566594
vt 0.976082 0.572554
vt 0.939143 0.539894
vt 0.955979 0.528642
vt 0.947385 0.531479
vt 0.941717 0.533175
vt 0.930403 0.564587
vt 0.961195 0.596986
vt 0.943135 0.604589
vt 0.949111 0.606286
vt 0.976082 0.530913
vt 0.173285 0.965579
vt 0.156143 0.903603
vt 0.193828 0.957883
vt 0.193828 0.905078
vt 0.166108 0.895798
vt 0.176881 0.893956
vt 0.136837 0.927312
vt 0.150242 0.961436
vt 0.682036 0.309038
vt 0.682036 0.407727
vt 0.682036 0.536530
vt 0.509880 0.535205
vt 0.543179 0.560093
vn -0.3038 0.2624 -0.9159
vn -0.3845 0.0005 -0.9231
vn -0.8460 0.5066 -0.1664
vn 0.7147 0.0104 -0.6994
vn 0.1964 0.2745 -0.9413
vn 0.5142 0.3252 -0.7936
vn 0.6525 0.3988 -0.6443
vn 0.4938 0.0661 -0.8671
vn 0.0480 0.0463 -0.9978
vn 0.2637 0.0045 -0.9646
vn -0.9980 -0.0245 0.0579
vn -0.9988 0.0002 0.0481
vn 0.4542 -0.5413 -0.7077
vn 0.6086 -0.4109 -0.6788
vn 0.9848 0.0015 -0.1739
vn 0.9405 0.0017 -0.3398
vn -0.6469 0.0008 0.7626
vn -0.4684 0.0000 0.8835
vn -0.5249 0.8150 0.2454
vn -0.2565 -0.0000 0.9665
vn 0.0892 -0.0000 0.9960
vn 0.0900 0.9100 0.4047
vn 0.8928 -0.3841 -0.2354
vn 0.8565 -0.4237 -0.2949
vn 0.4230 -0.0002 0.9061
vn 0.8865 0.0008 0.4627
vn 0.7538 0.6542 0.0612
vn 0.0521 -0.6434 0.7637
vn -0.2776 -0.8532 0.4415
vn -0.3681 -0.8443 -0.3894
vn 0.0283 -0.6312 -0.7751
vn 0.3770 -0.5116 0.7721
vn 0.8663 -0.3001 0.3995
s 1
f 1/1/1 8/2/2 4/3/3
f 10/4/4 2/5/5 3/6/6
f 7/7/7 10/4/4 3/6/6
f 2/5/5 8/2/2 1/1/1
f 12/8/8 13/9/9 10/4/4
f 9/10/10 10/4/4 13/9/9
f 8/2/2 9/10/10 13/9/9
f 8/2/2 17/11/11 33/12/12
f 22/13/13 8/2/2 13/9/9
f 21/14/14 13/9/9 12/8/8
f 7/7/7 27/15/15 25/16/16
f 4/3/3 31/17/17 30/18/18 5/19/19
f 5/19/19 29/20/20 32/21/21 11/22/22
f 14/23/23 10/4/4 25/16/16
f 16/24/24 12/8/8 10/4/4
f 11/22/22 28/25/25 26/26/26 6/27/27
f 18/28/28 17/11/11 23/29/29
f 23/29/29 17/11/11 24/30/30
f 17/11/11 15/31/31 24/30/30
f 19/32/32 22/33/13 14/34/23
f 16/35/24 22/33/13 21/36/14
f 22/33/13 19/32/32 15/37/31
f 15/37/31 18/38/28 24/39/30
f 24/39/30 18/38/28 23/40/29
f 18/38/28 15/37/31 19/32/32
f 19/32/32 14/34/23 20/41/33
f 22/33/13 16/35/24 14/34/23
f 5/42/19 7/43/7 4/44/3
f 1/45/1 3/46/6 2/47/5
f 3/46/6 1/45/1 7/43/7
f 7/43/7 5/42/19 6/48/27
f 1/45/1 4/44/3 7/43/7
f 6/48/27 5/42/19 11/49/22
f 10/4/4 9/10/10 2/5/5
f 2/5/5 9/10/10 8/2/2
f 8/2/2 15/31/31 17/11/11
f 22/13/13 15/31/31 8/2/2
f 21/14/14 22/13/13 13/9/9
f 7/7/7 6/50/27 26/51/26 27/15/15
f 4/3/3 33/12/12 31/17/17
f 5/19/19 30/18/18 29/20/20
f 14/23/23 16/24/24 10/4/4
f 16/24/24 21/14/14 12/8/8
f 11/22/22 32/21/21 28/25/25
f 25/16/16 10/4/4 7/7/7
f 25/16/16 27/15/15 20/52/33 14/23/23
f 27/15/15 26/51/26 20/52/33
f 26/26/26 28/25/25 20/53/33
f 32/21/21 29/20/20 19/54/32
f 28/25/25 32/21/21 19/54/32 20/53/33
f 29/20/20 30/18/18 18/28/28 19/54/32
f 30/18/18 31/17/17 18/28/28
f 31/17/17 33/12/12 17/11/11 18/28/28
f 33/12/12 4/3/3 8/2/2
