# Blender v2.80 (sub 75) OBJ File: 'Crystal4Houdini.blend'
# www.blender.org
g Shard07
v -0.041805 3.141506 0.054651
v -0.075802 3.141506 0.059947
v -0.103030 3.141506 0.032892
v -0.099818 3.141506 -0.004195
v -0.052770 3.141506 -0.021323
v -0.075802 -0.001054 0.059947
v -0.103030 -0.001054 0.032892
v -0.099818 -0.001054 -0.004195
v 0.069758 3.141506 0.031196
v 0.090069 3.141506 -0.010981
v 0.080916 3.141506 -0.032052
v 0.028941 3.141506 -0.041350
v 0.019036 3.141506 -0.063733
v -0.014264 3.141506 -0.077694
v -0.013415 3.141506 0.082033
v 0.020294 3.141506 0.077077
v -0.041805 3.141506 0.054651
v -0.075802 3.141506 0.059947
v -0.099818 3.141506 -0.004195
v -0.052770 3.141506 -0.021323
v -0.049254 3.141506 -0.059864
v 0.039485 3.141506 0.036382
v 0.069758 -0.001054 0.031196
v 0.090069 -0.001054 -0.010981
v 0.080916 -0.001054 -0.032052
v 0.028941 -0.001054 -0.041350
v 0.019036 -0.001054 -0.063733
v -0.014264 -0.001054 -0.077694
v -0.013415 -0.001054 0.082033
v 0.020294 -0.001054 0.077077
v -0.041805 -0.001054 0.054651
v -0.075802 -0.001054 0.059947
v -0.099818 -0.001054 -0.004195
v -0.052770 -0.001054 -0.021323
v -0.049254 -0.001054 -0.059864
v 0.039485 -0.001054 0.036382
vt 0.833956 0.253523
vt 0.823030 0.263671
vt 0.812762 0.259488
vt 0.809285 0.248598
vt 0.815304 0.240304
vt 0.345159 0.003921
vt 0.358761 0.783207
vt 0.345159 0.783267
vt 0.331556 0.003985
vt 0.331556 0.783331
vt 0.358761 0.003860
vt 0.833956 0.253523
vt 0.831180 0.221233
vt 0.850357 0.234579
vt 0.815304 0.240304
vt 0.811898 0.229061
vt 0.817787 0.220797
vt 0.854946 0.240243
vt 0.854127 0.250966
vt 0.844651 0.257822
vt 0.850602 0.214252
vt 0.854946 0.219538
vt 0.836664 0.213912
vt 0.236339 0.004391
vt 0.249940 0.783640
vt 0.236339 0.783738
vt 0.209133 0.004505
vt 0.222736 0.783770
vt 0.209134 0.783852
vt 0.249940 0.004293
vt 0.263544 0.783631
vt 0.317953 0.004005
vt 0.331556 0.783331
vt 0.317953 0.783351
vt 0.263544 0.004285
vt 0.277146 0.783536
vt 0.304351 0.004064
vt 0.304351 0.783411
vt 0.290748 0.004122
vt 0.290748 0.783469
vt 0.277146 0.004190
vt 0.399568 0.003658
vt 0.413171 0.782966
vt 0.399568 0.783004
vt 0.385966 0.003731
vt 0.385966 0.783077
vt 0.372363 0.003788
vt 0.372364 0.783135
vt 0.358761 0.003860
vt 0.358761 0.783207
vt 0.222735 0.004424
vt 0.331556 0.003985
vt 0.413171 0.003619
vn -0.5194 0.6200 0.5880
vn -0.7617 0.5651 0.3170
vn -0.7557 0.5422 0.3674
vn -0.6589 0.5556 0.5071
vn -0.1948 0.5973 0.7780
vn -0.7733 -0.5213 0.3609
vn -0.7903 -0.5314 0.3050
vn -0.6786 -0.5231 0.5156
vn -0.6576 0.6275 -0.4169
vn 0.4894 0.6353 0.5974
vn 0.3421 0.6319 -0.6954
vn -0.3811 0.6101 0.6947
vn -0.1083 0.5966 0.7952
vn 0.1816 0.5989 0.7799
vn 0.1969 0.6052 -0.7714
vn -0.0961 0.5960 -0.7972
vn -0.4212 0.6001 -0.6800
vn 0.7870 0.5993 -0.1462
vn 0.6769 0.5993 -0.4274
vn 0.6739 0.6069 0.4213
vn 0.8102 -0.5673 -0.1477
vn 0.5113 -0.5884 0.6264
vn 0.6933 -0.5675 -0.4442
vn -0.6822 -0.5876 -0.4351
vn -0.8104 0.5629 -0.1625
vn 0.3635 -0.5846 -0.7254
vn -0.4384 -0.5677 -0.6967
vn -0.0975 -0.5638 -0.8201
vn 0.2108 -0.5708 -0.7936
vn 0.1922 -0.5663 0.8015
vn -0.1139 -0.5645 0.8175
vn -0.3902 -0.5752 0.7190
vn -0.5112 -0.5637 0.6488
vn -0.5130 0.5612 0.6495
vn 0.6910 -0.5746 0.4386
vn -0.8086 -0.5654 -0.1627
s 1
f 5/1/1 4/2/2 3/3/3
f 3/3/3 2/4/4 1/5/5
f 5/1/1 3/3/3 1/5/5
f 7/6/6 2/7/4 3/8/3
f 8/9/7 3/8/3 4/10/2
f 7/6/6 6/11/8 2/7/4
f 8/9/7 7/6/6 3/8/3
f 20/12/9 22/13/10 12/14/11
f 17/15/12 15/16/13 16/17/14
f 17/15/12 16/17/14 22/13/10
f 13/18/15 14/19/16 12/14/11
f 14/19/16 21/20/17 20/12/9
f 12/14/11 14/19/16 20/12/9
f 10/21/18 11/22/19 12/14/11
f 20/12/9 17/15/12 22/13/10
f 22/13/10 9/23/20 12/14/11
f 9/23/20 10/21/18 12/14/11
f 24/24/21 11/25/19 10/26/18
f 36/27/22 9/28/20 22/29/10
f 25/30/23 12/31/11 11/25/19
f 34/32/24 19/33/25 20/34/9
f 26/35/26 13/36/15 12/31/11
f 35/37/27 20/34/9 21/38/17
f 28/39/28 21/38/17 14/40/16
f 27/41/29 14/40/16 13/36/15
f 30/42/30 22/43/10 16/44/14
f 29/45/31 16/44/14 15/46/13
f 31/47/32 15/46/13 17/48/12
f 32/49/33 17/48/12 18/50/34
f 23/51/35 10/26/18 9/28/20
f 24/24/21 25/30/23 11/25/19
f 36/27/22 23/51/35 9/28/20
f 25/30/23 26/35/26 12/31/11
f 34/32/24 33/52/36 19/33/25
f 26/35/26 27/41/29 13/36/15
f 35/37/27 34/32/24 20/34/9
f 28/39/28 35/37/27 21/38/17
f 27/41/29 28/39/28 14/40/16
f 30/42/30 36/53/22 22/43/10
f 29/45/31 30/42/30 16/44/14
f 31/47/32 29/45/31 15/46/13
f 32/49/33 31/47/32 17/48/12
f 23/51/35 24/24/21 10/26/18
