# Blender v2.80 (sub 75) OBJ File: 'Crystal4Houdini2.blend'
# www.blender.org
g Shard05
v 0.167967 0.764138 -0.018587
v 0.154834 0.763895 -0.164827
v 0.055085 0.762844 -0.200043
v 0.025710 0.766382 -0.179370
v 0.095610 0.767269 -0.119076
v 0.101117 0.768006 -0.027602
v 0.066971 0.767267 0.019048
v 0.120819 0.765251 0.019412
v 0.121755 0.765974 0.007388
v 0.119662 0.646466 0.136020
v 0.087102 0.603926 0.181914
v -0.060790 0.590864 0.195126
v -0.095908 0.684836 0.101925
v -0.186400 0.721748 0.063739
v -0.205604 0.806794 -0.021213
v -0.209527 0.806187 -0.033698
v -0.172322 0.806395 -0.069591
v 0.026647 0.806241 -0.175652
v 0.092356 0.806229 -0.119467
v 0.097563 0.806835 -0.025227
v 0.018594 0.806387 -0.173606
v -0.077744 0.461302 -0.159973
v 0.017352 0.767008 -0.175519
v 0.055085 0.462363 -0.200043
v -0.210312 0.445958 -0.033275
v -0.209723 0.716130 -0.033592
v -0.186400 0.449789 0.063739
v 0.025710 0.467029 -0.179370
v 0.017352 0.467655 -0.175519
v 0.007438 0.766426 -0.172027
v 0.167967 -0.636125 -0.018587
v 0.153814 -0.643559 -0.165367
v 0.123408 -0.660235 0.010722
v 0.119354 -0.666288 0.136886
v 0.087102 -0.682818 0.181914
v -0.060790 -0.768001 0.195126
v -0.095908 -0.789003 0.101925
v -0.077744 -0.776154 -0.159973
v 0.055085 -0.700514 -0.200043
v -0.210312 -0.852047 -0.033275
v -0.186400 -0.839501 0.063739
v 0.025710 -0.713118 -0.179370
v 0.017352 -0.721661 -0.175519
v 0.122763 0.751622 0.009936
v 0.121548 -0.011472 0.072931
v 0.009248 -0.012321 0.188869
v 0.087102 -0.012270 0.181914
v 0.167967 -0.010802 -0.018587
v 0.147601 -0.010896 -0.005736
v 0.162097 -0.010323 -0.083956
v 0.119508 -0.011937 0.136454
v 0.102744 -0.012111 0.160076
v 0.123111 -0.011014 0.010361
v -0.060790 -0.012367 0.195126
v 0.055085 -0.009472 -0.200043
v 0.154273 -0.009728 -0.165124
v 0.097217 -0.009581 -0.185245
v -0.095908 -0.012748 0.101925
v -0.186400 -0.012588 0.063739
v -0.201777 -0.012876 0.001354
v -0.152620 -0.012646 0.077994
v -0.076147 -0.012534 0.154370
v -0.210312 -0.012670 -0.033275
v -0.160640 -0.011949 -0.080747
v -0.039823 -0.010417 -0.166172
v 0.020732 -0.009897 -0.177077
v 0.017352 -0.009933 -0.175519
v 0.037704 -0.009691 -0.187811
v -0.077744 -0.010738 -0.159973
v 0.025710 -0.009843 -0.179370
vt 0.119489 0.938196
vt 0.084746 0.921699
vt 0.123690 0.904653
vt 0.069965 0.958165
vt 0.129598 0.936035
vt 0.127296 0.948357
vt 0.069479 0.934817
vt 0.077929 0.966132
vt 0.069658 0.960659
vt 0.129598 0.966317
vt 0.117570 0.979100
vt 0.119161 0.979206
vt 0.674275 0.593398
vt 0.669805 0.610309
vt 0.668384 0.593105
vt 0.672761 0.629861
vt 0.660532 0.633520
vt 0.668801 0.636876
vt 0.655760 0.606458
vt 0.678336 0.639965
vt 0.668740 0.639037
vt 0.680425 0.627738
vt 0.677332 0.610150
vt 0.680425 0.595435
vt 0.749017 0.599947
vt 0.727281 0.599801
vt 0.748951 0.537464
vt 0.813088 0.589552
vt 0.815864 0.607777
vt 0.813228 0.607679
vt 0.832170 0.536212
vt 0.812844 0.535457
vt 0.989579 0.624732
vt 0.989579 0.676905
vt 0.970737 0.631814
vt 0.756507 0.600741
vt 0.758256 0.538507
vt 0.758413 0.600848
vt 0.755956 0.538351
vt 0.760583 0.600694
vt 0.758498 0.608980
vt 0.756785 0.609001
vt 0.802783 0.607843
vt 0.777115 0.537674
vt 0.912351 0.639175
vt 0.888156 0.619002
vt 0.889993 0.616374
vt 0.751154 0.322286
vt 0.753996 0.450130
vt 0.749845 0.450156
vt 0.761681 0.316539
vt 0.770961 0.449494
vt 0.759632 0.449372
vt 0.820082 0.449463
vt 0.832512 0.449540
vt 0.951630 0.649841
vt 0.959985 0.765597
vt 0.951630 0.765564
vt 0.779937 0.306344
vt 0.800514 0.449612
vt 0.778191 0.449431
vt 0.731733 0.332452
vt 0.741603 0.449976
vt 0.729728 0.452849
vt 0.938140 0.765556
vt 0.923146 0.765546
vt 0.923146 0.647335
vt 0.982545 0.765618
vt 0.970737 0.765638
vt 0.703700 0.333410
vt 0.714240 0.452486
vt 0.701775 0.452192
vt 0.917992 0.765515
vt 0.912436 0.765482
vt 0.086849 0.895514
vt 0.757813 0.320045
vt 0.758077 0.450152
vt 0.756706 0.450138
vt 0.887679 0.616240
vt 0.689315 0.599629
vt 0.689275 0.596853
vt 0.699390 0.599395
vt 0.900243 0.765393
vt 0.888236 0.765305
vt 0.697201 0.452101
vt 0.909075 0.594458
vt 0.901249 0.602314
vt 0.862523 0.582736
vt 0.843534 0.573339
vt 0.840363 0.554283
vt 0.872083 0.533228
vt 0.893307 0.532495
vt 0.895655 0.531957
vt 0.902162 0.528642
vt 0.923164 0.537655
vt 0.912893 0.570517
vt 0.868424 0.601350
vt 0.923164 0.565980
vt 0.833124 0.590428
vt 0.813397 0.449478
vt 0.814409 0.292121
vt 0.989579 0.765607
vt 0.115401 0.893956
vt 0.691634 0.451988
vt 0.951630 0.910524
vt 0.923145 0.894183
vt 0.912520 0.891012
vt 0.888305 0.889851
vt 0.693643 0.328666
vt 0.970737 0.914553
vt 0.989579 0.924241
vt 0.833124 0.294537
vn 0.4609 0.8415 0.2819
vn -0.4516 0.6692 0.5901
vn 0.5643 0.6138 0.5522
vn -0.7209 0.6915 0.0471
vn 0.6527 0.7402 0.1614
vn 0.6336 0.7732 -0.0283
vn -0.7113 0.6053 0.3573
vn -0.6345 0.6940 -0.3403
vn -0.7487 0.6492 -0.1343
vn 0.5026 0.7122 -0.4901
vn 0.0016 0.7089 -0.7053
vn 0.1306 0.6871 -0.7147
vn 0.0377 0.6138 -0.7886
vn 0.4822 0.7379 -0.4723
vn 0.1394 0.6518 -0.7454
vn 0.6233 0.7778 -0.0806
vn 0.7344 0.6780 0.0316
vn 0.6237 0.7744 0.1061
vn 0.5627 0.6373 -0.5266
vn 0.1502 0.4653 -0.8723
vn -0.8357 0.5258 -0.1585
vn -0.8084 0.4660 0.3597
vn -0.8778 0.4503 -0.1634
vn -0.0067 0.4945 -0.8691
vn -0.0334 0.5772 -0.8159
vn -0.0315 0.4922 -0.8699
vn -0.0749 0.5845 -0.8079
vn -0.3976 0.4905 -0.7754
vn 0.7619 0.6249 0.1702
vn 0.1874 -0.6519 -0.7348
vn 0.0328 -0.0205 -0.9993
vn 0.1907 -0.0182 -0.9815
vn 0.1287 -0.6764 -0.7252
vn -0.2261 -0.0243 -0.9738
vn 0.0181 -0.0225 -0.9996
vn -0.9981 -0.0253 0.0564
vn -0.9211 -0.0254 0.3884
vn -0.3012 0.5575 0.7736
vn -0.5913 -0.0265 0.8060
vn -0.3593 -0.0241 0.9329
vn -0.2728 -0.6912 -0.6692
vn -0.8653 -0.0264 -0.5006
vn -0.4519 -0.0240 -0.8917
vn 0.6046 -0.5802 -0.5457
vn 0.4507 -0.0173 -0.8925
vn 0.7190 -0.0172 -0.6948
vn 0.0593 -0.0259 0.9979
vn 0.4585 -0.0242 0.8884
vn 0.3653 0.5702 0.7358
vn -0.8211 -0.0294 0.5701
vn -0.7050 -0.0366 0.7083
vn 0.7860 -0.6176 0.0273
vn 0.9278 -0.0226 -0.3724
vn 0.9996 -0.0255 0.0146
vn 0.6194 -0.0254 0.7846
vn 0.7505 -0.0263 0.6603
vn 0.1003 -0.6685 -0.7369
vn 0.0043 -0.0222 -0.9997
vn 0.0063 -0.0218 -0.9997
vn 0.9143 -0.0322 0.4039
vn 0.9848 -0.0353 0.1702
vn 0.9829 -0.0264 0.1821
vn 0.6135 -0.6258 0.4817
vn 0.3985 -0.6169 0.6787
vn -0.3853 -0.7632 0.5187
vn -0.6368 -0.7059 0.3102
vn -0.6986 -0.7014 -0.1417
vn 0.7080 -0.7012 0.0835
vn -0.2400 -0.6710 0.7015
vn -0.9838 -0.0236 -0.1774
s 1
f 7/1/1 13/2/2 10/3/3
f 15/4/4 13/2/2 7/1/1
f 7/1/1 10/3/3 8/5/5
f 15/4/4 7/1/1 20/6/6
f 14/7/7 13/2/2 15/4/4
f 15/4/4 17/8/8 16/9/9
f 20/6/6 17/8/8 15/4/4
f 19/10/10 21/11/11 20/6/6
f 18/12/12 21/11/11 19/10/10
f 17/8/8 20/6/6 21/11/11
f 4/13/13 5/14/14 3/15/15
f 5/14/14 6/16/16 1/17/17
f 1/17/17 6/16/16 9/18/18
f 2/19/19 5/14/14 1/17/17
f 9/18/18 6/16/16 7/20/1
f 9/18/18 7/20/1 8/21/5
f 3/15/15 5/14/14 2/19/19
f 6/16/16 20/22/6 7/20/1
f 6/16/16 19/23/10 20/22/6
f 5/14/14 18/24/12 19/23/10
f 3/25/15 2/26/19 24/27/20
f 26/28/21 15/29/4 16/30/9
f 27/31/22 26/28/21 25/32/23
f 14/33/7 27/34/22 13/35/2
f 4/36/13 29/37/24 23/38/25
f 3/25/15 28/39/26 4/36/13
f 23/38/25 30/40/27 21/41/11
f 23/38/25 18/42/12 4/36/13
f 21/41/11 30/40/27 17/43/8
f 30/40/27 22/44/28 17/43/8
f 29/37/24 30/40/27 23/38/25
f 25/32/23 17/43/8 22/44/28
f 17/43/8 26/28/21 16/30/9
f 25/32/23 26/28/21 17/43/8
f 10/45/3 44/46/29 8/47/5
f 39/48/30 68/49/31 55/50/32
f 43/51/33 65/52/34 67/53/35
f 25/32/23 60/54/36 59/55/37 27/31/22
f 12/56/38 62/57/39 54/58/40
f 38/59/41 64/60/42 69/61/43
f 32/62/44 57/63/45 56/64/46
f 12/56/38 46/65/47 47/66/48 11/67/49
f 27/34/22 61/68/50 58/69/51 13/35/2
f 31/70/52 50/71/53 48/72/54
f 11/67/49 52/73/55 51/74/56 10/45/3
f 12/75/38 10/3/3 13/2/2
f 42/76/57 66/77/58 70/78/59
f 9/79/18 8/47/5 44/46/29
f 9/80/18 44/81/29 1/82/17
f 10/45/3 45/83/60 53/84/61 44/46/29
f 44/81/29 49/85/62 48/72/54 1/82/17
f 34/86/63 35/87/64 37/88/65
f 37/88/65 41/89/66 40/90/67
f 40/90/67 38/91/41 37/88/65
f 38/91/41 43/92/33 37/88/65
f 42/93/57 39/94/30 32/95/44
f 43/92/33 42/93/57 33/96/68
f 37/88/65 43/92/33 33/96/68
f 35/87/64 36/97/69 37/88/65
f 42/93/57 32/95/44 33/96/68
f 32/95/44 31/98/52 33/96/68
f 33/96/68 34/86/63 37/88/65
f 6/16/16 5/14/14 19/23/10
f 5/14/14 4/13/13 18/24/12
f 26/28/21 14/99/7 15/29/4
f 27/31/22 14/99/7 26/28/21
f 4/36/13 28/39/26 29/37/24
f 3/25/15 24/27/20 28/39/26
f 23/38/25 21/41/11 18/42/12
f 29/37/24 22/44/28 30/40/27
f 39/48/30 42/76/57 70/78/59 68/49/31
f 43/51/33 38/59/41 69/61/43 65/52/34
f 25/32/23 63/100/70 60/54/36
f 12/56/38 13/35/2 58/69/51 62/57/39
f 38/59/41 40/101/67 63/100/70 64/60/42
f 32/62/44 39/48/30 55/50/32 57/63/45
f 12/56/38 54/58/40 46/65/47
f 27/34/22 59/102/37 61/68/50
f 31/70/52 32/62/44 56/64/46 50/71/53
f 11/67/49 47/66/48 52/73/55
f 12/75/38 11/103/49 10/3/3
f 42/76/57 43/51/33 67/53/35 66/77/58
f 10/45/3 51/74/56 45/83/60
f 44/81/29 53/104/61 49/85/62
f 46/65/47 54/58/40 36/105/69 35/106/64
f 50/71/53 56/64/46 2/26/19
f 48/72/54 50/71/53 2/26/19 1/82/17
f 45/83/60 51/74/56 34/107/63 33/108/68
f 47/66/48 46/65/47 35/106/64
f 53/84/61 45/83/60 33/108/68
f 57/63/45 55/50/32 24/27/20
f 56/64/46 57/63/45 24/27/20 2/26/19
f 52/73/55 47/66/48 35/106/64 34/107/63
f 51/74/56 52/73/55 34/107/63
f 49/85/62 53/104/61 33/109/68 31/70/52
f 48/72/54 49/85/62 31/70/52
f 58/69/51 61/68/50 37/110/65
f 62/57/39 58/69/51 37/110/65
f 61/68/50 59/102/37 41/111/66 37/110/65
f 59/55/37 60/54/36 41/112/66
f 54/58/40 62/57/39 37/110/65 36/105/69
f 55/50/32 68/49/31 28/39/26 24/27/20
f 69/61/43 64/60/42 25/32/23 22/44/28
f 70/78/59 66/77/58 29/37/24 28/39/26
f 67/53/35 65/52/34 22/44/28 29/37/24
f 68/49/31 70/78/59 28/39/26
f 66/77/58 67/53/35 29/37/24
f 65/52/34 69/61/43 22/44/28
f 64/60/42 63/100/70 25/32/23
f 60/54/36 63/100/70 40/101/67 41/112/66
