# Blender v2.91.0 OBJ File: ''
# www.blender.org
mtllib Shard08.mtl
g Shard08
v 0.010366 3.136464 0.033767
v 0.044475 3.136464 -0.000342
v 0.021647 3.136464 -0.048288
v 0.044475 -0.003926 -0.000343
v -0.044253 -0.003926 0.011641
v -0.044253 3.136464 0.011642
v 0.021647 -0.003926 -0.048289
v -0.029503 3.136464 -0.042669
v 0.010366 -0.003926 0.033766
v -0.029503 -0.003926 -0.042670
vt 0.662901 0.671668
vt 0.655760 0.659202
vt 0.666064 0.647203
vt 0.420411 0.003676
vt 0.436392 0.919286
vt 0.420410 0.919294
vt 0.468784 0.003651
vt 0.485965 0.919269
vt 0.468781 0.919269
vt 0.436393 0.003667
vt 0.452374 0.919269
vt 0.485965 0.003651
vt 0.501947 0.919238
vt 0.452375 0.003651
vt 0.680327 0.652811
vt 0.680327 0.669573
vt 0.501947 0.003619
vn 0.2554 0.4927 0.8319
vn 0.9120 0.4102 -0.0070
vn 0.3826 0.3536 -0.8536
vn 0.8806 -0.4738 -0.0068
vn -0.8569 -0.4634 0.2256
vn -0.8861 0.4005 0.2331
vn 0.3727 -0.4119 -0.8315
vn -0.5306 0.3598 -0.7675
vn 0.2429 -0.5609 0.7915
vn -0.5164 -0.4188 -0.7469
usemtl Default_OBJ.002
s 1
f 1/1/1 2/2/2 3/3/3
f 4/4/4 3/5/3 2/6/2
f 5/7/5 1/8/1 6/9/6
f 7/10/7 8/11/8 3/5/3
f 9/12/9 2/13/2 1/8/1
f 10/14/10 6/9/6 8/11/8
f 3/3/3 8/15/8 1/1/1
f 8/15/8 6/16/6 1/1/1
f 4/4/4 7/10/7 3/5/3
f 5/7/5 9/12/9 1/8/1
f 7/10/7 10/14/10 8/11/8
f 9/12/9 4/17/4 2/13/2
f 10/14/10 5/7/5 6/9/6
