# Blender v2.80 (sub 75) OBJ File: 'Crystal4Houdini.blend'
# www.blender.org
g Shard06
v 0.040016 3.128606 0.095673
v 0.064703 3.128606 0.050467
v -0.024465 3.128606 0.084136
v -0.036560 3.128606 0.056804
v -0.077963 3.128606 0.039446
v -0.082222 3.128606 -0.025349
v -0.019684 3.128606 -0.041705
v -0.012253 3.128606 -0.088354
v 0.043388 3.128606 -0.108904
v 0.068083 3.128606 -0.094354
v 0.078080 3.128606 -0.041789
v 0.033650 3.128606 -0.002085
v 0.040016 -0.000036 0.095673
v 0.064703 -0.000036 0.050467
v -0.024465 -0.000036 0.084136
v -0.036560 -0.000036 0.056804
v -0.077963 -0.000036 0.039446
v -0.082222 -0.000036 -0.025349
v -0.019684 -0.000036 -0.041705
v -0.012253 -0.000036 -0.088354
v 0.043388 -0.000036 -0.108904
v 0.068083 -0.000036 -0.094354
v 0.078080 -0.000036 -0.041789
v 0.033650 -0.000036 -0.002085
vt 0.773234 0.251852
vt 0.772470 0.222096
vt 0.790648 0.242454
vt 0.755500 0.244359
vt 0.759525 0.225442
vt 0.777203 0.214557
vt 0.802046 0.228291
vt 0.796702 0.213912
vt 0.788953 0.274355
vt 0.773431 0.265920
vt 0.802046 0.256055
vt 0.796853 0.271121
vt 0.101639 0.003772
vt 0.119962 0.886581
vt 0.101638 0.886581
vt 0.184671 0.003619
vt 0.201895 0.886428
vt 0.184669 0.886428
vt 0.150778 0.003634
vt 0.169260 0.886443
vt 0.150779 0.886443
vt 0.035846 0.003903
vt 0.051250 0.886614
vt 0.035842 0.886712
vt 0.083399 0.003772
vt 0.083398 0.886581
vt 0.135370 0.003728
vt 0.135371 0.886537
vt 0.020436 0.003909
vt 0.020433 0.886717
vt 0.067990 0.003806
vt 0.067989 0.886614
vt 0.119962 0.003772
vt 0.003623 0.003908
vt 0.003619 0.886717
vt 0.169262 0.003634
vt 0.051253 0.003806
vt 0.201895 0.003619
vn -0.5787 0.6511 -0.4910
vn -0.5765 0.6189 0.5335
vn 0.7392 0.6695 0.0732
vn -0.7947 0.5905 -0.1405
vn -0.7576 0.5901 0.2789
vn -0.3923 0.5993 0.6979
vn 0.6997 0.6027 0.3836
vn 0.3729 0.5930 0.7136
vn 0.3767 0.5944 -0.7105
vn -0.3030 0.6077 -0.7340
vn 0.7746 0.6007 -0.1979
vn 0.6050 0.5917 -0.5327
vn -0.8151 -0.5596 -0.1497
vn 0.7244 -0.5701 0.3876
vn -0.4056 -0.5680 0.7162
vn 0.6236 -0.5598 -0.5457
vn -0.6080 -0.6026 -0.5169
vn -0.6002 -0.5743 0.5567
vn 0.8000 -0.5674 -0.1953
vn -0.3188 -0.5756 -0.7530
vn -0.7771 -0.5589 0.2894
vn 0.7817 -0.6186 0.0795
vn 0.3830 -0.5631 0.7323
vn 0.3829 -0.5621 -0.7331
s 1
f 7/1/1 4/2/2 12/3/3
f 7/1/1 6/4/4 5/5/5
f 4/2/2 3/6/6 2/7/7
f 3/6/6 1/8/8 2/7/7
f 7/1/1 5/5/5 4/2/2
f 9/9/9 8/10/10 11/11/11
f 8/10/10 7/1/1 11/11/11
f 11/11/11 10/12/12 9/9/9
f 2/7/7 12/3/3 4/2/2
f 12/3/3 11/11/11 7/1/1
f 18/13/13 5/14/5 6/15/4
f 14/16/14 12/17/3 2/18/7
f 15/19/15 1/20/8 3/21/6
f 22/22/16 9/23/9 10/24/12
f 19/25/17 6/15/4 7/26/1
f 16/27/18 3/21/6 4/28/2
f 23/29/19 10/24/12 11/30/11
f 20/31/20 7/26/1 8/32/10
f 17/33/21 4/28/2 5/14/5
f 24/34/22 11/30/11 12/35/3
f 13/36/23 2/18/7 1/20/8
f 21/37/24 8/32/10 9/23/9
f 18/13/13 17/33/21 5/14/5
f 14/16/14 24/38/22 12/17/3
f 15/19/15 13/36/23 1/20/8
f 22/22/16 21/37/24 9/23/9
f 19/25/17 18/13/13 6/15/4
f 16/27/18 15/19/15 3/21/6
f 23/29/19 22/22/16 10/24/12
f 20/31/20 19/25/17 7/26/1
f 17/33/21 16/27/18 4/28/2
f 24/34/22 23/29/19 11/30/11
f 13/36/23 14/16/14 2/18/7
f 21/37/24 20/31/20 8/32/10
