# Blender v2.91.0 OBJ File: 'VFX_Particles.blend'
# www.blender.org
g ParticleFunnel_03
v -0.097930 -0.236424 -0.008134
v -0.180951 -0.180951 -0.008134
v 0.000000 0.255903 -0.008134
v 0.097930 0.236424 -0.008134
v 0.255903 -0.000000 -0.008134
v 0.180951 -0.180952 -0.008134
v 0.097930 -0.236424 -0.008134
v -0.000000 -0.255904 -0.008134
v -0.236424 -0.097930 -0.008134
v -0.255904 -0.000000 -0.008134
v -0.236424 0.097930 -0.008134
v -0.180951 0.180951 -0.008134
v -0.097930 0.236424 -0.008134
v 0.180951 0.180951 -0.008134
v 0.236424 0.097930 -0.008134
v 0.236424 -0.097931 -0.008134
v -0.200358 0.082991 -0.304580
v -0.141348 0.058548 -0.656650
v 0.216866 -0.000000 -0.304580
v 0.152994 -0.000000 -0.656650
v -0.108183 0.108183 -0.656650
v -0.153348 0.153347 -0.304580
v 0.141348 -0.058549 -0.656650
v 0.200358 -0.082992 -0.304580
v -0.058548 0.141348 -0.656650
v -0.082991 0.200358 -0.304580
v -0.108183 -0.108183 -0.656651
v -0.153348 -0.153348 -0.304580
v 0.108183 -0.108183 -0.656651
v 0.153347 -0.153348 -0.304580
v -0.082991 -0.200359 -0.304580
v -0.058548 -0.141348 -0.656651
v -0.000000 -0.000000 -1.020774
v -0.000000 0.152994 -0.656650
v 0.000000 0.216866 -0.304580
v 0.058548 -0.141348 -0.656651
v 0.082991 -0.200359 -0.304580
v -0.000000 -0.216866 -0.304580
v -0.000000 -0.152994 -0.656651
v 0.058548 0.141348 -0.656650
v 0.082991 0.200358 -0.304580
v -0.141348 -0.058549 -0.656651
v -0.200358 -0.082991 -0.304580
v 0.108183 0.108183 -0.656650
v 0.153348 0.153347 -0.304580
v -0.152994 -0.000000 -0.656650
v -0.216866 -0.000000 -0.304580
v 0.141348 0.058548 -0.656650
v 0.200358 0.082991 -0.304580
vt 0.071282 0.767220
vt 0.000100 0.586863
vt 0.205482 0.545548
vt 0.245428 0.651594
vt 0.377449 0.520673
vt 0.493468 0.497671
vt 0.395115 0.563294
vt 0.661978 0.255681
vt 0.559777 0.399135
vt 0.516801 0.382392
vt 0.556125 0.209633
vt 0.592974 0.000100
vt 0.777496 0.074295
vt 0.427658 0.595971
vt 0.322588 0.734778
vt 0.205118 0.906676
vt 0.470322 0.379722
vt 0.441622 0.209525
vt 0.396493 0.002289
vt 0.470222 0.613778
vt 0.425732 0.783102
vt 0.380587 0.984828
vt 0.427350 0.398324
vt 0.336390 0.250515
vt 0.216742 0.077244
vt 0.516399 0.613889
vt 0.540658 0.789980
vt 0.570334 0.991835
vt 0.731189 0.668097
vt 0.591515 0.563546
vt 0.608911 0.520987
vt 0.781312 0.563708
vt 0.999900 0.608014
vt 0.915973 0.801410
vt 0.394781 0.431558
vt 0.254629 0.328778
vt 0.648606 0.748261
vt 0.559016 0.596192
vt 0.078744 0.214015
vt 0.756737 0.934367
vt 0.608333 0.475252
vt 0.785387 0.446575
vt 0.999900 0.401185
vt 0.377312 0.474469
vt 0.208702 0.432309
vt 0.002709 0.392730
vt 0.593342 0.431430
vt 0.741600 0.338653
vt 0.920329 0.214563
vn -0.9160 0.3794 -0.1305
vn -0.7010 0.7010 -0.1305
vn -0.6986 0.6986 -0.1541
vn -0.9128 0.3781 -0.1541
vn -0.6786 0.6786 -0.2810
vn 0.0000 0.0000 -1.0000
vn -0.8866 0.3673 -0.2810
vn 0.9880 0.0000 -0.1541
vn 0.9597 0.0000 -0.2810
vn 0.8866 0.3673 -0.2810
vn 0.9128 0.3781 -0.1541
vn 0.9160 0.3794 -0.1305
vn 0.9914 0.0000 -0.1305
vn -0.9597 0.0000 -0.2810
vn -0.9880 0.0000 -0.1541
vn -0.9914 0.0000 -0.1305
vn 0.6786 0.6786 -0.2810
vn 0.6986 0.6986 -0.1541
vn 0.7010 0.7010 -0.1305
vn -0.8866 -0.3673 -0.2810
vn -0.9128 -0.3781 -0.1541
vn -0.9160 -0.3794 -0.1305
vn 0.3673 0.8866 -0.2810
vn 0.3781 0.9128 -0.1541
vn 0.3794 0.9160 -0.1305
vn -0.6786 -0.6786 -0.2810
vn -0.6986 -0.6986 -0.1541
vn -0.7010 -0.7010 -0.1305
vn 0.0000 -0.9880 -0.1541
vn 0.0000 -0.9597 -0.2810
vn 0.3673 -0.8866 -0.2810
vn 0.3781 -0.9128 -0.1541
vn 0.3794 -0.9160 -0.1305
vn 0.0000 -0.9914 -0.1305
vn 0.0000 0.9597 -0.2810
vn 0.0000 0.9880 -0.1541
vn -0.3781 -0.9128 -0.1541
vn -0.3673 -0.8866 -0.2810
vn 0.0000 0.9914 -0.1305
vn -0.3794 -0.9160 -0.1305
vn 0.6786 -0.6786 -0.2810
vn 0.6986 -0.6986 -0.1541
vn 0.7010 -0.7010 -0.1305
vn -0.3673 0.8866 -0.2810
vn -0.3781 0.9128 -0.1541
vn -0.3794 0.9160 -0.1305
vn 0.8866 -0.3673 -0.2810
vn 0.9128 -0.3781 -0.1541
vn 0.9160 -0.3794 -0.1305
s 1
f 11/1/1 12/2/2 22/3/3 17/4/4
f 21/5/5 33/6/6 18/7/7
f 19/8/8 20/9/9 48/10/10 49/11/11
f 15/12/12 5/13/13 19/8/8 49/11/11
f 20/9/9 33/6/6 48/10/10
f 17/4/4 18/7/7 46/14/14 47/15/15
f 10/16/16 11/1/1 17/4/4 47/15/15
f 18/7/7 33/6/6 46/14/14
f 49/11/11 48/10/10 44/17/17 45/18/18
f 14/19/19 15/12/12 49/11/11 45/18/18
f 48/10/10 33/6/6 44/17/17
f 47/15/15 46/14/14 42/20/20 43/21/21
f 9/22/22 10/16/16 47/15/15 43/21/21
f 46/14/14 33/6/6 42/20/20
f 45/18/18 44/17/17 40/23/23 41/24/24
f 4/25/25 14/19/19 45/18/18 41/24/24
f 44/17/17 33/6/6 40/23/23
f 43/21/21 42/20/20 27/26/26 28/27/27
f 2/28/28 9/22/22 43/21/21 28/27/27
f 42/20/20 33/6/6 27/26/26
f 38/29/29 39/30/30 36/31/31 37/32/32
f 7/33/33 8/34/34 38/29/29 37/32/32
f 39/30/30 33/6/6 36/31/31
f 41/24/24 40/23/23 34/35/35 35/36/36
f 31/37/37 32/38/38 39/30/30 38/29/29
f 32/38/38 33/6/6 39/30/30
f 40/23/23 33/6/6 34/35/35
f 3/39/39 4/25/25 41/24/24 35/36/36
f 1/40/40 31/37/37 38/29/29 8/34/34
f 37/32/32 36/31/31 29/41/41 30/42/42
f 6/43/43 7/33/33 37/32/32 30/42/42
f 36/31/31 33/6/6 29/41/41
f 35/36/36 34/35/35 25/44/44 26/45/45
f 28/27/27 27/26/26 32/38/38 31/37/37
f 27/26/26 33/6/6 32/38/38
f 34/35/35 33/6/6 25/44/44
f 13/46/46 3/39/39 35/36/36 26/45/45
f 2/28/28 28/27/27 31/37/37 1/40/40
f 30/42/42 29/41/41 23/47/47 24/48/48
f 16/49/49 6/43/43 30/42/42 24/48/48
f 29/41/41 33/6/6 23/47/47
f 26/45/45 25/44/44 21/5/5 22/3/3
f 12/2/2 13/46/46 26/45/45 22/3/3
f 25/44/44 33/6/6 21/5/5
f 24/48/48 23/47/47 20/9/9 19/8/8
f 5/13/13 16/49/49 24/48/48 19/8/8
f 23/47/47 33/6/6 20/9/9
f 22/3/3 21/5/5 18/7/7 17/4/4
