# Blender v2.80 (sub 75) OBJ File: 'Missile6.blend'
# www.blender.org
g VFXMesh_01
v 0.000000 0.198887 -0.084664
v 0.016517 0.198887 -0.083038
v 0.032400 0.198887 -0.078220
v 0.047037 0.198887 -0.070396
v 0.059867 0.198887 -0.059867
v 0.070396 0.198887 -0.047037
v 0.078220 0.198887 -0.032400
v 0.083037 0.198887 -0.016517
v 0.084664 0.198887 -0.000000
v 0.083037 0.198887 0.016517
v 0.078220 0.198887 0.032399
v 0.070396 0.198887 0.047037
v 0.059867 0.198887 0.059866
v 0.047037 0.198887 0.070395
v 0.032400 0.198887 0.078219
v 0.016517 0.198887 0.083037
v 0.000000 0.198887 0.084664
v -0.016517 0.198887 0.083037
v -0.032399 0.198887 0.078219
v -0.047037 0.198887 0.070395
v -0.059866 0.198887 0.059866
v -0.070395 0.198887 0.047036
v -0.078219 0.198887 0.032399
v -0.083037 0.198887 0.016517
v -0.084664 0.198887 -0.000000
v -0.083037 0.198887 -0.016518
v -0.078219 0.198887 -0.032400
v -0.070395 0.198887 -0.047037
v -0.059866 0.198887 -0.059867
v -0.047037 0.198887 -0.070396
v -0.032399 0.198887 -0.078220
v -0.016517 0.198887 -0.083038
v 0.000000 0.911486 -0.078071
v 0.015231 0.911486 -0.076571
v 0.029876 0.911486 -0.072128
v 0.043374 0.911486 -0.064913
v 0.055204 0.911486 -0.055204
v 0.064913 0.911486 -0.043374
v 0.072128 0.911486 -0.029877
v 0.076570 0.911486 -0.015231
v 0.078071 0.911486 -0.000000
v 0.076570 0.911486 0.015230
v 0.072128 0.911486 0.029876
v 0.064913 0.911486 0.043373
v 0.055204 0.911486 0.055204
v 0.043374 0.911486 0.064913
v 0.029876 0.911486 0.072127
v 0.015231 0.911486 0.076570
v 0.000000 0.911486 0.078070
v -0.015231 0.911486 0.076570
v -0.029876 0.911486 0.072127
v -0.043373 0.911486 0.064913
v -0.055204 0.911486 0.055204
v -0.064913 0.911486 0.043373
v -0.072128 0.911486 0.029876
v -0.076570 0.911486 0.015230
v -0.078070 0.911486 -0.000000
v -0.076570 0.911486 -0.015231
v -0.072127 0.911486 -0.029877
v -0.064913 0.911486 -0.043374
v -0.055204 0.911486 -0.055204
v -0.043373 0.911486 -0.064914
v -0.029876 0.911486 -0.072128
v -0.015231 0.911486 -0.076571
v 0.000000 0.279415 -0.113243
v 0.000000 0.705437 -0.124619
v 0.000000 0.399693 -0.133756
v 0.000000 0.560603 -0.137920
v 0.024312 0.705437 -0.122224
v 0.022093 0.279415 -0.111067
v 0.026907 0.560603 -0.135270
v 0.026095 0.399694 -0.131186
v 0.047690 0.705437 -0.115133
v 0.043336 0.279415 -0.104623
v 0.052780 0.560603 -0.127421
v 0.051186 0.399693 -0.123575
v 0.069235 0.705437 -0.103617
v 0.062915 0.279415 -0.094158
v 0.076624 0.560603 -0.114676
v 0.074311 0.399693 -0.111214
v 0.088119 0.705437 -0.088119
v 0.080075 0.279415 -0.080075
v 0.097524 0.560603 -0.097524
v 0.094580 0.399693 -0.094580
v 0.103617 0.705437 -0.069235
v 0.094158 0.279415 -0.062915
v 0.114676 0.560603 -0.076624
v 0.111214 0.399694 -0.074311
v 0.115133 0.705437 -0.047690
v 0.104623 0.279415 -0.043336
v 0.127421 0.560603 -0.052780
v 0.123574 0.399694 -0.051186
v 0.122224 0.705437 -0.024312
v 0.111067 0.279415 -0.022093
v 0.135270 0.560603 -0.026907
v 0.131186 0.399694 -0.026095
v 0.124619 0.705437 -0.000000
v 0.113243 0.279415 -0.000000
v 0.137920 0.560603 -0.000000
v 0.133756 0.399694 -0.000000
v 0.122224 0.705437 0.024312
v 0.111067 0.279415 0.022092
v 0.135270 0.560603 0.026906
v 0.131186 0.399694 0.026094
v 0.115133 0.705437 0.047689
v 0.104623 0.279415 0.043336
v 0.127421 0.560603 0.052779
v 0.123574 0.399693 0.051186
v 0.103617 0.705437 0.069234
v 0.094158 0.279415 0.062914
v 0.114676 0.560603 0.076624
v 0.111214 0.399693 0.074310
v 0.088119 0.705437 0.088118
v 0.080075 0.279415 0.080074
v 0.097524 0.560603 0.097524
v 0.094580 0.399693 0.094579
v 0.069235 0.705437 0.103616
v 0.062914 0.279415 0.094158
v 0.076624 0.560603 0.114676
v 0.074311 0.399694 0.111214
v 0.047690 0.705437 0.115132
v 0.043336 0.279415 0.104622
v 0.052780 0.560603 0.127421
v 0.051186 0.399694 0.123574
v 0.024312 0.705437 0.122224
v 0.022093 0.279415 0.111067
v 0.026907 0.560603 0.135269
v 0.026095 0.399694 0.131185
v 0.000000 0.705437 0.124618
v 0.000000 0.279415 0.113243
v 0.000000 0.560603 0.137919
v 0.000000 0.399694 0.133755
v -0.024312 0.705437 0.122224
v -0.022092 0.279415 0.111067
v -0.026907 0.560603 0.135269
v -0.026094 0.399693 0.131185
v -0.047689 0.705437 0.115132
v -0.043336 0.279415 0.104622
v -0.052779 0.560603 0.127421
v -0.051186 0.399693 0.123574
v -0.069234 0.705437 0.103616
v -0.062914 0.279415 0.094158
v -0.076624 0.560603 0.114676
v -0.074311 0.399694 0.111214
v -0.088119 0.705437 0.088118
v -0.080075 0.279415 0.080074
v -0.097524 0.560603 0.097524
v -0.094580 0.399694 0.094579
v -0.103617 0.705437 0.069234
v -0.094158 0.279415 0.062914
v -0.114676 0.560603 0.076624
v -0.111214 0.399694 0.074310
v -0.115133 0.705437 0.047689
v -0.104623 0.279415 0.043336
v -0.127421 0.560603 0.052779
v -0.123574 0.399693 0.051186
v -0.122224 0.705437 0.024312
v -0.111067 0.279415 0.022092
v -0.135269 0.560603 0.026906
v -0.131186 0.399693 0.026094
v -0.124619 0.705437 -0.000000
v -0.113243 0.279415 -0.000000
v -0.137919 0.560603 -0.000000
v -0.133756 0.399693 -0.000000
v -0.122224 0.705437 -0.024312
v -0.111067 0.279415 -0.022093
v -0.135269 0.560603 -0.026907
v -0.131186 0.399693 -0.026095
v -0.115132 0.705437 -0.047690
v -0.104623 0.279415 -0.043337
v -0.127421 0.560603 -0.052780
v -0.123574 0.399693 -0.051187
v -0.103616 0.705437 -0.069235
v -0.094158 0.279415 -0.062915
v -0.114676 0.560603 -0.076624
v -0.111214 0.399693 -0.074311
v -0.088118 0.705437 -0.088119
v -0.080075 0.279415 -0.080075
v -0.097524 0.560603 -0.097524
v -0.094579 0.399693 -0.094580
v -0.069234 0.705437 -0.103617
v -0.062914 0.279415 -0.094158
v -0.076624 0.560603 -0.114676
v -0.074310 0.399693 -0.111214
v -0.047689 0.705437 -0.115133
v -0.043336 0.279415 -0.104623
v -0.052779 0.560603 -0.127421
v -0.051186 0.399693 -0.123575
v -0.024312 0.705437 -0.122224
v -0.022092 0.279415 -0.111067
v -0.026906 0.560603 -0.135270
v -0.026094 0.399693 -0.131186
vt 0.004815 0.469276
vt 0.157704 0.469276
vt 0.157704 0.500392
vt 0.004815 0.500392
vt 0.679604 0.562625
vt 0.679604 0.531509
vt 0.998457 0.531509
vt 0.998457 0.562625
vt 0.679604 0.593742
vt 0.998457 0.593742
vt 0.679604 0.624858
vt 0.998457 0.624858
vt 0.679604 0.655975
vt 0.998457 0.655975
vt 0.679604 0.687091
vt 0.998457 0.687091
vt 0.679604 0.718208
vt 0.998457 0.718208
vt 0.679604 0.749324
vt 0.998457 0.749324
vt 0.679604 0.780441
vt 0.998457 0.780441
vt 0.679604 0.811557
vt 0.998457 0.811557
vt 0.679604 0.842674
vt 0.998457 0.842674
vt 0.679604 0.873790
vt 0.998457 0.873790
vt 0.679604 0.904907
vt 0.998457 0.904907
vt 0.679604 0.936023
vt 0.998457 0.936023
vt 0.679604 0.967140
vt 0.998457 0.967140
vt 0.679604 0.998256
vt 0.998457 0.998256
vt 0.679604 0.033646
vt 0.679604 0.002530
vt 0.998457 0.002530
vt 0.998457 0.033646
vt 0.679604 0.064762
vt 0.998457 0.064762
vt 0.679604 0.095879
vt 0.998457 0.095879
vt 0.679604 0.126995
vt 0.998457 0.126995
vt 0.679604 0.158112
vt 0.998457 0.158112
vt 0.679604 0.189228
vt 0.998457 0.189228
vt 0.679604 0.220345
vt 0.998457 0.220345
vt 0.679604 0.251461
vt 0.998457 0.251461
vt 0.679604 0.282577
vt 0.998457 0.282577
vt 0.679604 0.313694
vt 0.998457 0.313694
vt 0.679604 0.344810
vt 0.998457 0.344810
vt 0.679604 0.375927
vt 0.998457 0.375927
vt 0.679604 0.407043
vt 0.998457 0.407043
vt 0.679604 0.438160
vt 0.998457 0.438160
vt 0.004815 0.749324
vt 0.157704 0.749324
vt 0.157704 0.780441
vt 0.004815 0.780441
vt 0.679604 0.469276
vt 0.998457 0.469276
vt 0.679604 0.500392
vt 0.998457 0.500392
vt 0.004815 0.033646
vt 0.157704 0.033646
vt 0.157704 0.064762
vt 0.004815 0.064762
vt 0.004815 0.313694
vt 0.157704 0.313694
vt 0.157704 0.344810
vt 0.004815 0.344810
vt 0.004815 0.624858
vt 0.157704 0.624858
vt 0.157704 0.655975
vt 0.004815 0.655975
vt 0.004815 0.904907
vt 0.157704 0.904907
vt 0.157704 0.936023
vt 0.004815 0.936023
vt 0.004815 0.189228
vt 0.157704 0.189228
vt 0.157704 0.220345
vt 0.004815 0.220345
vt 0.157704 0.811557
vt 0.004815 0.811557
vt 0.157704 0.095879
vt 0.004815 0.095879
vt 0.157704 0.375927
vt 0.004815 0.375927
vt 0.157704 0.687091
vt 0.004815 0.687091
vt 0.157704 0.967140
vt 0.004815 0.967140
vt 0.157704 0.251461
vt 0.004815 0.251461
vt 0.157704 0.531509
vt 0.004815 0.531509
vt 0.157704 0.562625
vt 0.004815 0.562625
vt 0.157704 0.842674
vt 0.004815 0.842674
vt 0.157704 0.126995
vt 0.004815 0.126995
vt 0.157704 0.407043
vt 0.004815 0.407043
vt 0.157704 0.718208
vt 0.004815 0.718208
vt 0.157704 0.998256
vt 0.004815 0.998256
vt 0.157704 0.282577
vt 0.004815 0.282577
vt 0.157704 0.593742
vt 0.004815 0.593742
vt 0.157704 0.873790
vt 0.004815 0.873790
vt 0.157704 0.158112
vt 0.004815 0.158112
vt 0.157704 0.438160
vt 0.004815 0.438160
vt 0.004815 0.002530
vt 0.157704 0.002530
vt 0.324836 0.500392
vt 0.324836 0.531509
vt 0.512510 0.500392
vt 0.512510 0.531509
vt 0.324836 0.562625
vt 0.512510 0.562625
vt 0.324836 0.593742
vt 0.512510 0.593742
vt 0.324836 0.624858
vt 0.512510 0.624858
vt 0.324836 0.655975
vt 0.512510 0.655975
vt 0.324836 0.687091
vt 0.512510 0.687091
vt 0.324836 0.718208
vt 0.512510 0.718208
vt 0.324836 0.749324
vt 0.512510 0.749324
vt 0.324836 0.780441
vt 0.512510 0.780441
vt 0.324836 0.811557
vt 0.512510 0.811557
vt 0.324836 0.842674
vt 0.512510 0.842674
vt 0.324836 0.873790
vt 0.512510 0.873790
vt 0.324836 0.904907
vt 0.512510 0.904907
vt 0.324836 0.936023
vt 0.512510 0.936023
vt 0.324836 0.967140
vt 0.512510 0.967140
vt 0.324836 0.998256
vt 0.512510 0.998256
vt 0.324836 0.002530
vt 0.324836 0.033646
vt 0.512510 0.002530
vt 0.512510 0.033646
vt 0.324836 0.064762
vt 0.512510 0.064762
vt 0.324836 0.095879
vt 0.512510 0.095879
vt 0.324836 0.126995
vt 0.512510 0.126995
vt 0.324836 0.158112
vt 0.512510 0.158112
vt 0.324836 0.189228
vt 0.512510 0.189228
vt 0.324836 0.220345
vt 0.512510 0.220345
vt 0.324836 0.251461
vt 0.512510 0.251461
vt 0.324836 0.282577
vt 0.512510 0.282577
vt 0.324836 0.313694
vt 0.512510 0.313694
vt 0.324836 0.344810
vt 0.512510 0.344810
vt 0.324836 0.375927
vt 0.512510 0.375927
vt 0.324836 0.407043
vt 0.512510 0.407043
vt 0.324836 0.438160
vt 0.512510 0.438160
vt 0.324836 0.469276
vt 0.512510 0.469276
vn -0.1838 -0.3345 -0.9243
vn -0.1888 -0.2509 -0.9494
vn 0.0000 -0.2509 -0.9680
vn 0.0000 -0.3345 -0.9424
vn 0.3780 0.1556 -0.9126
vn 0.1927 0.1556 -0.9688
vn 0.1903 0.2203 -0.9567
vn 0.3733 0.2203 -0.9012
vn 0.5488 0.1556 -0.8213
vn 0.5419 0.2203 -0.8110
vn 0.6985 0.1556 -0.6985
vn 0.6897 0.2203 -0.6897
vn 0.8213 0.1556 -0.5488
vn 0.8110 0.2203 -0.5419
vn 0.9126 0.1556 -0.3780
vn 0.9012 0.2203 -0.3733
vn 0.9688 0.1556 -0.1927
vn 0.9567 0.2203 -0.1903
vn 0.9878 0.1556 0.0000
vn 0.9754 0.2203 0.0000
vn 0.9688 0.1556 0.1927
vn 0.9567 0.2203 0.1903
vn 0.9126 0.1556 0.3780
vn 0.9012 0.2203 0.3733
vn 0.8213 0.1556 0.5488
vn 0.8110 0.2203 0.5419
vn 0.6985 0.1556 0.6985
vn 0.6897 0.2203 0.6897
vn 0.5488 0.1556 0.8213
vn 0.5419 0.2203 0.8110
vn 0.3780 0.1556 0.9126
vn 0.3733 0.2203 0.9012
vn 0.1927 0.1556 0.9688
vn 0.1903 0.2203 0.9567
vn 0.0000 0.1556 0.9878
vn 0.0000 0.2203 0.9754
vn -0.1927 0.1556 0.9688
vn -0.1903 0.2203 0.9567
vn -0.3780 0.1556 0.9126
vn -0.3733 0.2203 0.9012
vn -0.5488 0.1556 0.8213
vn -0.5419 0.2203 0.8110
vn -0.6985 0.1556 0.6985
vn -0.6897 0.2203 0.6897
vn -0.8213 0.1556 0.5488
vn -0.8110 0.2203 0.5419
vn -0.9126 0.1556 0.3780
vn -0.9012 0.2203 0.3733
vn -0.9688 0.1556 0.1927
vn -0.9567 0.2203 0.1903
vn -0.9878 0.1556 0.0000
vn -0.9754 0.2203 0.0000
vn -0.9688 0.1556 -0.1927
vn -0.9567 0.2203 -0.1903
vn -0.9126 0.1556 -0.3780
vn -0.9012 0.2203 -0.3733
vn -0.8213 0.1556 -0.5488
vn -0.8110 0.2203 -0.5419
vn -0.6985 0.1556 -0.6985
vn -0.6897 0.2203 -0.6897
vn -0.5488 0.1556 -0.8213
vn -0.5419 0.2203 -0.8110
vn -0.3780 0.1556 -0.9126
vn -0.3733 0.2203 -0.9012
vn 0.9424 -0.3345 0.0000
vn 0.9680 -0.2509 0.0000
vn 0.9494 -0.2509 0.1888
vn 0.9243 -0.3345 0.1838
vn -0.1927 0.1556 -0.9688
vn -0.1903 0.2203 -0.9567
vn 0.0000 0.1556 -0.9878
vn 0.0000 0.2203 -0.9754
vn -0.1838 -0.3345 0.9243
vn -0.1888 -0.2509 0.9494
vn -0.3704 -0.2509 0.8943
vn -0.3606 -0.3345 0.8707
vn -0.8707 -0.3345 -0.3606
vn -0.8943 -0.2509 -0.3704
vn -0.8049 -0.2509 -0.5378
vn -0.7836 -0.3345 -0.5236
vn 0.6664 -0.3345 -0.6664
vn 0.6845 -0.2509 -0.6845
vn 0.8049 -0.2509 -0.5378
vn 0.7836 -0.3345 -0.5236
vn 0.5236 -0.3345 0.7836
vn 0.5378 -0.2509 0.8049
vn 0.3704 -0.2509 0.8943
vn 0.3606 -0.3345 0.8707
vn -0.8707 -0.3345 0.3606
vn -0.8943 -0.2509 0.3704
vn -0.9494 -0.2509 0.1888
vn -0.9243 -0.3345 0.1838
vn 0.8943 -0.2509 0.3704
vn 0.8707 -0.3345 0.3606
vn -0.5378 -0.2509 0.8049
vn -0.5236 -0.3345 0.7836
vn -0.6845 -0.2509 -0.6845
vn -0.6664 -0.3345 -0.6664
vn 0.8943 -0.2509 -0.3704
vn 0.8707 -0.3345 -0.3606
vn 0.1888 -0.2509 0.9494
vn 0.1838 -0.3345 0.9243
vn -0.9680 -0.2509 0.0000
vn -0.9424 -0.3345 0.0000
vn 0.1888 -0.2509 -0.9494
vn 0.1838 -0.3345 -0.9243
vn 0.3704 -0.2509 -0.8943
vn 0.3606 -0.3345 -0.8707
vn 0.8049 -0.2509 0.5378
vn 0.7836 -0.3345 0.5236
vn -0.6845 -0.2509 0.6845
vn -0.6664 -0.3345 0.6664
vn -0.5378 -0.2509 -0.8049
vn -0.5235 -0.3345 -0.7836
vn 0.9494 -0.2509 -0.1888
vn 0.9243 -0.3345 -0.1838
vn 0.0000 -0.2509 0.9680
vn 0.0000 -0.3345 0.9424
vn -0.9494 -0.2509 -0.1888
vn -0.9243 -0.3345 -0.1838
vn 0.5378 -0.2509 -0.8049
vn 0.5236 -0.3345 -0.7836
vn 0.6845 -0.2509 0.6845
vn 0.6664 -0.3345 0.6664
vn -0.8049 -0.2509 0.5378
vn -0.7836 -0.3345 0.5236
vn -0.3704 -0.2509 -0.8943
vn -0.3606 -0.3345 -0.8707
vn 0.0000 -0.0968 -0.9953
vn 0.1942 -0.0968 -0.9762
vn 0.0000 0.0327 -0.9995
vn 0.1950 0.0327 -0.9803
vn 0.3809 -0.0968 -0.9195
vn 0.3825 0.0327 -0.9234
vn 0.5529 -0.0968 -0.8275
vn 0.5553 0.0327 -0.8310
vn 0.7038 -0.0968 -0.7038
vn 0.7067 0.0327 -0.7067
vn 0.8275 -0.0968 -0.5529
vn 0.8310 0.0327 -0.5553
vn 0.9195 -0.0968 -0.3809
vn 0.9234 0.0327 -0.3825
vn 0.9762 -0.0968 -0.1942
vn 0.9803 0.0327 -0.1950
vn 0.9953 -0.0968 0.0000
vn 0.9995 0.0327 0.0000
vn 0.9762 -0.0968 0.1942
vn 0.9803 0.0327 0.1950
vn 0.9195 -0.0968 0.3809
vn 0.9234 0.0327 0.3825
vn 0.8275 -0.0968 0.5529
vn 0.8310 0.0327 0.5553
vn 0.7038 -0.0968 0.7038
vn 0.7067 0.0327 0.7067
vn 0.5529 -0.0968 0.8275
vn 0.5553 0.0327 0.8310
vn 0.3809 -0.0968 0.9195
vn 0.3825 0.0327 0.9234
vn 0.1942 -0.0968 0.9762
vn 0.1950 0.0327 0.9803
vn 0.0000 -0.0968 0.9953
vn 0.0000 0.0327 0.9995
vn -0.1942 -0.0968 0.9762
vn -0.1950 0.0327 0.9803
vn -0.3809 -0.0968 0.9195
vn -0.3825 0.0327 0.9234
vn -0.5529 -0.0968 0.8275
vn -0.5553 0.0327 0.8310
vn -0.7038 -0.0968 0.7038
vn -0.7067 0.0327 0.7067
vn -0.8275 -0.0968 0.5529
vn -0.8310 0.0327 0.5553
vn -0.9195 -0.0968 0.3809
vn -0.9234 0.0327 0.3825
vn -0.9762 -0.0968 0.1942
vn -0.9803 0.0327 0.1950
vn -0.9953 -0.0968 0.0000
vn -0.9995 0.0327 0.0000
vn -0.9762 -0.0968 -0.1942
vn -0.9803 0.0327 -0.1950
vn -0.9195 -0.0968 -0.3809
vn -0.9234 0.0327 -0.3825
vn -0.8275 -0.0968 -0.5529
vn -0.8310 0.0327 -0.5553
vn -0.7038 -0.0968 -0.7038
vn -0.7067 0.0327 -0.7067
vn -0.5529 -0.0968 -0.8275
vn -0.5553 0.0327 -0.8310
vn -0.3809 -0.0968 -0.9195
vn -0.3825 0.0327 -0.9234
vn -0.1942 -0.0968 -0.9762
vn -0.1950 0.0327 -0.9803
s 1
f 32/1/1 190/2/2 65/3/3 1/4/4
f 73/5/5 69/6/6 34/7/7 35/8/8
f 77/9/9 73/5/5 35/8/8 36/10/10
f 81/11/11 77/9/9 36/10/10 37/12/12
f 85/13/13 81/11/11 37/12/12 38/14/14
f 89/15/15 85/13/13 38/14/14 39/16/16
f 93/17/17 89/15/15 39/16/16 40/18/18
f 97/19/19 93/17/17 40/18/18 41/20/20
f 101/21/21 97/19/19 41/20/20 42/22/22
f 105/23/23 101/21/21 42/22/22 43/24/24
f 109/25/25 105/23/23 43/24/24 44/26/26
f 113/27/27 109/25/25 44/26/26 45/28/28
f 117/29/29 113/27/27 45/28/28 46/30/30
f 121/31/31 117/29/29 46/30/30 47/32/32
f 125/33/33 121/31/31 47/32/32 48/34/34
f 129/35/35 125/33/33 48/34/34 49/36/36
f 133/37/37 129/38/35 49/39/36 50/40/38
f 137/41/39 133/37/37 50/40/38 51/42/40
f 141/43/41 137/41/39 51/42/40 52/44/42
f 145/45/43 141/43/41 52/44/42 53/46/44
f 149/47/45 145/45/43 53/46/44 54/48/46
f 153/49/47 149/47/45 54/48/46 55/50/48
f 157/51/49 153/49/47 55/50/48 56/52/50
f 161/53/51 157/51/49 56/52/50 57/54/52
f 165/55/53 161/53/51 57/54/52 58/56/54
f 169/57/55 165/55/53 58/56/54 59/58/56
f 173/59/57 169/57/55 59/58/56 60/60/58
f 177/61/59 173/59/57 60/60/58 61/62/60
f 181/63/61 177/61/59 61/62/60 62/64/62
f 185/65/63 181/63/61 62/64/62 63/66/64
f 9/67/65 98/68/66 102/69/67 10/70/68
f 189/71/69 185/65/63 63/66/64 64/72/70
f 66/73/71 189/71/69 64/72/70 33/74/72
f 18/75/73 134/76/74 138/77/75 19/78/76
f 27/79/77 170/80/78 174/81/79 28/82/80
f 5/83/81 82/84/82 86/85/83 6/86/84
f 14/87/85 118/88/86 122/89/87 15/90/88
f 23/91/89 154/92/90 158/93/91 24/94/92
f 10/70/68 102/69/67 106/95/93 11/96/94
f 19/78/76 138/77/75 142/97/95 20/98/96
f 28/82/80 174/81/79 178/99/97 29/100/98
f 6/86/84 86/85/83 90/101/99 7/102/100
f 15/90/88 122/89/87 126/103/101 16/104/102
f 24/94/92 158/93/91 162/105/103 25/106/104
f 1/4/4 65/3/3 70/107/105 2/108/106
f 2/108/106 70/107/105 74/109/107 3/110/108
f 11/96/94 106/95/93 110/111/109 12/112/110
f 20/98/96 142/97/95 146/113/111 21/114/112
f 29/100/98 178/99/97 182/115/113 30/116/114
f 7/102/100 90/101/99 94/117/115 8/118/116
f 16/104/102 126/103/101 130/119/117 17/120/118
f 25/106/104 162/105/103 166/121/119 26/122/120
f 3/110/108 74/109/107 78/123/121 4/124/122
f 12/112/110 110/111/109 114/125/123 13/126/124
f 21/114/112 146/113/111 150/127/125 22/128/126
f 30/116/114 182/115/113 186/129/127 31/130/128
f 8/118/116 94/117/115 98/68/66 9/67/65
f 17/131/118 130/132/117 134/76/74 18/75/73
f 26/122/120 166/121/119 170/80/78 27/79/77
f 4/124/122 78/123/121 82/84/82 5/83/81
f 13/126/124 114/125/123 118/88/86 14/87/85
f 22/128/126 150/127/125 154/92/90 23/91/89
f 31/130/128 186/129/127 190/2/2 32/1/1
f 70/107/105 65/3/3 67/133/129 72/134/130
f 72/134/130 67/133/129 68/135/131 71/136/132
f 71/136/132 68/135/131 66/73/71 69/6/6
f 74/109/107 70/107/105 72/134/130 76/137/133
f 76/137/133 72/134/130 71/136/132 75/138/134
f 75/138/134 71/136/132 69/6/6 73/5/5
f 78/123/121 74/109/107 76/137/133 80/139/135
f 80/139/135 76/137/133 75/138/134 79/140/136
f 79/140/136 75/138/134 73/5/5 77/9/9
f 82/84/82 78/123/121 80/139/135 84/141/137
f 84/141/137 80/139/135 79/140/136 83/142/138
f 83/142/138 79/140/136 77/9/9 81/11/11
f 86/85/83 82/84/82 84/141/137 88/143/139
f 88/143/139 84/141/137 83/142/138 87/144/140
f 87/144/140 83/142/138 81/11/11 85/13/13
f 90/101/99 86/85/83 88/143/139 92/145/141
f 92/145/141 88/143/139 87/144/140 91/146/142
f 91/146/142 87/144/140 85/13/13 89/15/15
f 94/117/115 90/101/99 92/145/141 96/147/143
f 96/147/143 92/145/141 91/146/142 95/148/144
f 95/148/144 91/146/142 89/15/15 93/17/17
f 98/68/66 94/117/115 96/147/143 100/149/145
f 100/149/145 96/147/143 95/148/144 99/150/146
f 99/150/146 95/148/144 93/17/17 97/19/19
f 102/69/67 98/68/66 100/149/145 104/151/147
f 104/151/147 100/149/145 99/150/146 103/152/148
f 103/152/148 99/150/146 97/19/19 101/21/21
f 106/95/93 102/69/67 104/151/147 108/153/149
f 108/153/149 104/151/147 103/152/148 107/154/150
f 107/154/150 103/152/148 101/21/21 105/23/23
f 110/111/109 106/95/93 108/153/149 112/155/151
f 112/155/151 108/153/149 107/154/150 111/156/152
f 111/156/152 107/154/150 105/23/23 109/25/25
f 114/125/123 110/111/109 112/155/151 116/157/153
f 116/157/153 112/155/151 111/156/152 115/158/154
f 115/158/154 111/156/152 109/25/25 113/27/27
f 118/88/86 114/125/123 116/157/153 120/159/155
f 120/159/155 116/157/153 115/158/154 119/160/156
f 119/160/156 115/158/154 113/27/27 117/29/29
f 122/89/87 118/88/86 120/159/155 124/161/157
f 124/161/157 120/159/155 119/160/156 123/162/158
f 123/162/158 119/160/156 117/29/29 121/31/31
f 126/103/101 122/89/87 124/161/157 128/163/159
f 128/163/159 124/161/157 123/162/158 127/164/160
f 127/164/160 123/162/158 121/31/31 125/33/33
f 130/119/117 126/103/101 128/163/159 132/165/161
f 132/165/161 128/163/159 127/164/160 131/166/162
f 131/166/162 127/164/160 125/33/33 129/35/35
f 134/76/74 130/132/117 132/167/161 136/168/163
f 136/168/163 132/167/161 131/169/162 135/170/164
f 135/170/164 131/169/162 129/38/35 133/37/37
f 138/77/75 134/76/74 136/168/163 140/171/165
f 140/171/165 136/168/163 135/170/164 139/172/166
f 139/172/166 135/170/164 133/37/37 137/41/39
f 142/97/95 138/77/75 140/171/165 144/173/167
f 144/173/167 140/171/165 139/172/166 143/174/168
f 143/174/168 139/172/166 137/41/39 141/43/41
f 146/113/111 142/97/95 144/173/167 148/175/169
f 148/175/169 144/173/167 143/174/168 147/176/170
f 147/176/170 143/174/168 141/43/41 145/45/43
f 150/127/125 146/113/111 148/175/169 152/177/171
f 152/177/171 148/175/169 147/176/170 151/178/172
f 151/178/172 147/176/170 145/45/43 149/47/45
f 154/92/90 150/127/125 152/177/171 156/179/173
f 156/179/173 152/177/171 151/178/172 155/180/174
f 155/180/174 151/178/172 149/47/45 153/49/47
f 158/93/91 154/92/90 156/179/173 160/181/175
f 160/181/175 156/179/173 155/180/174 159/182/176
f 159/182/176 155/180/174 153/49/47 157/51/49
f 162/105/103 158/93/91 160/181/175 164/183/177
f 164/183/177 160/181/175 159/182/176 163/184/178
f 163/184/178 159/182/176 157/51/49 161/53/51
f 166/121/119 162/105/103 164/183/177 168/185/179
f 168/185/179 164/183/177 163/184/178 167/186/180
f 167/186/180 163/184/178 161/53/51 165/55/53
f 170/80/78 166/121/119 168/185/179 172/187/181
f 172/187/181 168/185/179 167/186/180 171/188/182
f 171/188/182 167/186/180 165/55/53 169/57/55
f 174/81/79 170/80/78 172/187/181 176/189/183
f 176/189/183 172/187/181 171/188/182 175/190/184
f 175/190/184 171/188/182 169/57/55 173/59/57
f 178/99/97 174/81/79 176/189/183 180/191/185
f 180/191/185 176/189/183 175/190/184 179/192/186
f 179/192/186 175/190/184 173/59/57 177/61/59
f 182/115/113 178/99/97 180/191/185 184/193/187
f 184/193/187 180/191/185 179/192/186 183/194/188
f 183/194/188 179/192/186 177/61/59 181/63/61
f 186/129/127 182/115/113 184/193/187 188/195/189
f 188/195/189 184/193/187 183/194/188 187/196/190
f 187/196/190 183/194/188 181/63/61 185/65/63
f 190/2/2 186/129/127 188/195/189 192/197/191
f 192/197/191 188/195/189 187/196/190 191/198/192
f 191/198/192 187/196/190 185/65/63 189/71/69
f 65/3/3 190/2/2 192/197/191 67/133/129
f 67/133/129 192/197/191 191/198/192 68/135/131
f 68/135/131 191/198/192 189/71/69 66/73/71
f 69/6/6 66/73/71 33/74/72 34/7/7
